<svg width="18" height="18" viewBox="0 0 18 18" fill="none" xmlns="http://www.w3.org/2000/svg">
<path d="M10.8911 4.46387H3.6536C2.74034 4.46387 2 5.21051 2 6.13154V15.8325C2 16.7535 2.74034 17.5001 3.6536 17.5001H10.8911C11.8043 17.5001 12.5447 16.7535 12.5447 15.8325V6.13154C12.5447 5.21051 11.8043 4.46387 10.8911 4.46387Z" fill="#FF9900"/>
<path d="M10.8929 4.46387H5.16333V12.0791C5.16333 13.2663 6.11714 14.2282 7.29431 14.2282H12.5446V6.12961C12.5446 5.21118 11.8036 4.46387 10.8929 4.46387Z" fill="#FF9900"/>
<path d="M14.5356 0.5H7.29431C6.11714 0.5 5.16333 1.46193 5.16333 2.64913V3.49698H10.8929C12.3318 3.49698 13.5032 4.6774 13.5032 6.12949V14.2613H14.5356C15.7128 14.2613 16.6666 13.2994 16.6666 12.1122V2.64913C16.6666 1.46193 15.7128 0.5 14.5356 0.5Z" fill="#FF9900"/>
</svg>
