<svg width="220" height="220" viewBox="0 0 220 220" fill="none" xmlns="http://www.w3.org/2000/svg">
<g clip-path="url(#clip0_1140_8568)">
<path d="M34.2546 104.703V110.892H45.014V115.243H34.2546V123.776H28.8749V100.352H46.4406V104.703H34.2546Z" fill="#2C2C2C"/>
<path d="M56.848 106.173C57.8976 105.729 59.1105 105.501 60.4869 105.501V110.322C59.9087 110.277 59.5253 110.252 59.3242 110.252C57.841 110.252 56.6784 110.67 55.8362 111.506C54.9941 112.342 54.573 113.596 54.573 115.269V123.769H49.3944V105.767H54.3405V108.143C54.9626 107.275 55.7985 106.616 56.848 106.166V106.173Z" fill="#2C2C2C"/>
<path d="M81.704 105.774V123.776H76.7893V121.635C76.1043 122.414 75.281 123.016 74.332 123.427C73.383 123.839 72.3524 124.048 71.2462 124.048C68.9021 124.048 67.0418 123.37 65.6654 122.008C64.2954 120.647 63.6041 118.626 63.6041 115.953V105.78H68.7826V115.186C68.7826 118.088 69.9893 119.538 72.4026 119.538C73.6407 119.538 74.64 119.133 75.3941 118.316C76.1483 117.498 76.5254 116.289 76.5254 114.686V105.786H81.704V105.774Z" fill="#2C2C2C"/>
<path d="M86.518 105.774H91.6966V123.776H86.518V105.774Z" fill="#2C2C2C"/>
<path d="M108.037 122.908C107.528 123.288 106.899 123.573 106.158 123.763C105.416 123.953 104.637 124.048 103.82 124.048C101.696 124.048 100.049 123.503 98.8863 122.408C97.7236 121.312 97.1455 119.709 97.1455 117.587V110.189H94.3865V106.173H97.1455V101.79H102.324V106.173H106.774V110.189H102.324V117.518C102.324 118.278 102.519 118.86 102.902 119.272C103.292 119.684 103.839 119.893 104.549 119.893C105.366 119.893 106.063 119.671 106.642 119.221L108.037 122.902V122.908Z" fill="#2C2C2C"/>
<path d="M116.703 104.703V110.892H127.463V115.243H116.703V123.776H111.324V100.352H128.889V104.703H116.703Z" fill="#2C2C2C"/>
<path d="M139.297 106.173C140.346 105.729 141.559 105.501 142.936 105.501V110.322C142.357 110.277 141.974 110.252 141.773 110.252C140.29 110.252 139.127 110.67 138.285 111.506C137.443 112.342 137.022 113.596 137.022 115.269V123.769H131.843V105.767H136.789V108.143C137.411 107.275 138.247 106.616 139.297 106.166V106.173Z" fill="#2C2C2C"/>
<path d="M164.153 105.774V123.776H159.238V121.635C158.553 122.414 157.73 123.016 156.781 123.427C155.832 123.839 154.801 124.048 153.695 124.048C151.351 124.048 149.491 123.37 148.114 122.008C146.744 120.647 146.053 118.626 146.053 115.953V105.78H151.231V115.186C151.231 118.088 152.438 119.538 154.851 119.538C156.09 119.538 157.089 119.133 157.843 118.316C158.597 117.498 158.974 116.289 158.974 114.686V105.786H164.153V105.774Z" fill="#2C2C2C"/>
<path d="M168.967 105.774H174.145V123.776H168.967V105.774Z" fill="#2C2C2C"/>
<path d="M190.479 122.908C189.97 123.288 189.342 123.573 188.6 123.763C187.859 123.953 187.079 124.048 186.262 124.048C184.138 124.048 182.491 123.503 181.329 122.408C180.166 121.312 179.588 119.709 179.588 117.587V110.189H176.829V106.173H179.588V101.79H184.767V106.173H189.216V110.189H184.767V117.518C184.767 118.278 184.961 118.86 185.345 119.272C185.734 119.684 186.281 119.893 186.991 119.893C187.808 119.893 188.506 119.671 189.084 119.221L190.479 122.902V122.908Z" fill="#2C2C2C"/>
<path d="M88.9377 94.0174C86.9203 91.9841 84.0607 91.319 81.4903 92.0094C80.8053 94.6001 81.4652 97.4822 83.4825 99.5155C85.4999 101.549 88.3595 102.214 90.9299 101.523C91.6149 98.9328 90.955 96.0507 88.9377 94.0174Z" fill="url(#paint0_radial_1140_8568)"/>
<path d="M89.277 94.0174C91.2944 91.9841 94.154 91.319 96.7244 92.0094C97.4094 94.6001 96.7495 97.4822 94.7322 99.5155C92.7148 101.549 89.8552 102.214 87.2848 101.523C86.5998 98.9328 87.2597 96.0507 89.277 94.0174Z" fill="url(#paint1_radial_1140_8568)"/>
<path d="M171.386 94.0174C169.369 91.9841 166.51 91.319 163.939 92.0094C163.254 94.6001 163.914 97.4822 165.931 99.5155C167.949 101.549 170.808 102.214 173.379 101.523C174.064 98.9328 173.404 96.0507 171.386 94.0174Z" fill="url(#paint2_radial_1140_8568)"/>
<path d="M171.726 94.0174C173.743 91.9841 176.603 91.319 179.173 92.0094C179.858 94.6001 179.198 97.4822 177.181 99.5155C175.164 101.549 172.304 102.214 169.734 101.523C169.049 98.9328 169.708 96.0507 171.726 94.0174Z" fill="url(#paint3_radial_1140_8568)"/>
</g>
<defs>
<radialGradient id="paint0_radial_1140_8568" cx="0" cy="0" r="1" gradientUnits="userSpaceOnUse" gradientTransform="translate(91.0116 101.948) scale(13.5058 13.6123)">
<stop stop-color="#A2D3B1"/>
<stop offset="0.78" stop-color="#4FAC70"/>
</radialGradient>
<radialGradient id="paint1_radial_1140_8568" cx="0" cy="0" r="1" gradientUnits="userSpaceOnUse" gradientTransform="translate(87.7561 100.022) scale(11.7021 11.7944)">
<stop stop-color="#A2D3B1"/>
<stop offset="0.78" stop-color="#4FAC70"/>
</radialGradient>
<radialGradient id="paint2_radial_1140_8568" cx="0" cy="0" r="1" gradientUnits="userSpaceOnUse" gradientTransform="translate(173.46 69.0667) scale(13.5058 13.6123)">
<stop stop-color="#A2D3B1"/>
<stop offset="0.78" stop-color="#4FAC70"/>
</radialGradient>
<radialGradient id="paint3_radial_1140_8568" cx="0" cy="0" r="1" gradientUnits="userSpaceOnUse" gradientTransform="translate(170.199 100.022) scale(11.7021 11.7944)">
<stop stop-color="#A2D3B1"/>
<stop offset="0.78" stop-color="#4FAC70"/>
</radialGradient>
<clipPath id="clip0_1140_8568">
<rect width="173.25" height="56.375" fill="white" transform="translate(28.8749 68.75)"/>
</clipPath>
</defs>
</svg>
